<mxfile host="app.diagrams.net" modified="2022-04-24T19:41:27.696Z" agent="5.0 (Windows NT 10.0; Win64; x64) AppleWebKit/537.36 (KHTML, like Gecko) Chrome/100.0.4896.88 Safari/537.36" etag="6G6h6rcky5zF_7__C6yF" version="17.4.6" type="github">
  <diagram name="Page-1" id="74b105a0-9070-1c63-61bc-23e55f88626e">
    <mxGraphModel dx="2844" dy="1602" grid="1" gridSize="10" guides="1" tooltips="1" connect="1" arrows="1" fold="1" page="1" pageScale="1.5" pageWidth="1169" pageHeight="826" background="none" math="0" shadow="0">
      <root>
        <mxCell id="0" style=";html=1;" />
        <mxCell id="1" style=";html=1;" parent="0" />
        <mxCell id="EOm_PajLkAZvnmIKBMYh-17" value="LICENSE MANAGEMENT WITH LICENSE LOG MONITORING&amp;nbsp;" style="text;html=1;strokeColor=none;fillColor=none;align=center;verticalAlign=middle;whiteSpace=wrap;rounded=0;fontStyle=3;fontSize=17;" vertex="1" parent="1">
          <mxGeometry x="290" y="40" width="1110" height="30" as="geometry" />
        </mxCell>
        <mxCell id="EOm_PajLkAZvnmIKBMYh-26" value="License Purchasing" style="swimlane;startSize=20;horizontal=1;containerType=tree;newEdgeStyle={&quot;edgeStyle&quot;:&quot;elbowEdgeStyle&quot;,&quot;startArrow&quot;:&quot;none&quot;,&quot;endArrow&quot;:&quot;none&quot;};fontSize=17;" vertex="1" parent="1">
          <mxGeometry x="40" y="120" width="490" height="890" as="geometry" />
        </mxCell>
        <mxCell id="EOm_PajLkAZvnmIKBMYh-27" value="" style="edgeStyle=elbowEdgeStyle;elbow=vertical;startArrow=none;endArrow=none;rounded=0;fontSize=17;" edge="1" parent="EOm_PajLkAZvnmIKBMYh-26" source="EOm_PajLkAZvnmIKBMYh-29" target="EOm_PajLkAZvnmIKBMYh-30">
          <mxGeometry relative="1" as="geometry" />
        </mxCell>
        <mxCell id="EOm_PajLkAZvnmIKBMYh-28" value="" style="edgeStyle=elbowEdgeStyle;elbow=vertical;startArrow=none;endArrow=none;rounded=0;fontSize=17;" edge="1" parent="EOm_PajLkAZvnmIKBMYh-26" source="EOm_PajLkAZvnmIKBMYh-29" target="EOm_PajLkAZvnmIKBMYh-31">
          <mxGeometry relative="1" as="geometry" />
        </mxCell>
        <UserObject label="Choosing Package" treeRoot="1" id="EOm_PajLkAZvnmIKBMYh-29">
          <mxCell style="whiteSpace=wrap;html=1;align=center;treeFolding=1;treeMoving=1;newEdgeStyle={&quot;edgeStyle&quot;:&quot;elbowEdgeStyle&quot;,&quot;startArrow&quot;:&quot;none&quot;,&quot;endArrow&quot;:&quot;none&quot;};fontSize=17;" vertex="1" parent="EOm_PajLkAZvnmIKBMYh-26">
            <mxGeometry x="80" y="40" width="120" height="60" as="geometry" />
          </mxCell>
        </UserObject>
        <mxCell id="EOm_PajLkAZvnmIKBMYh-41" style="edgeStyle=orthogonalEdgeStyle;rounded=0;orthogonalLoop=1;jettySize=auto;html=1;entryX=0.5;entryY=0;entryDx=0;entryDy=0;fontSize=17;" edge="1" parent="EOm_PajLkAZvnmIKBMYh-26" source="EOm_PajLkAZvnmIKBMYh-30" target="EOm_PajLkAZvnmIKBMYh-37">
          <mxGeometry relative="1" as="geometry" />
        </mxCell>
        <mxCell id="EOm_PajLkAZvnmIKBMYh-30" value="Free" style="whiteSpace=wrap;html=1;align=center;verticalAlign=middle;treeFolding=1;treeMoving=1;newEdgeStyle={&quot;edgeStyle&quot;:&quot;elbowEdgeStyle&quot;,&quot;startArrow&quot;:&quot;none&quot;,&quot;endArrow&quot;:&quot;none&quot;};fontSize=17;" vertex="1" parent="EOm_PajLkAZvnmIKBMYh-26">
          <mxGeometry x="20" y="140" width="100" height="60" as="geometry" />
        </mxCell>
        <mxCell id="EOm_PajLkAZvnmIKBMYh-46" style="edgeStyle=orthogonalEdgeStyle;rounded=0;orthogonalLoop=1;jettySize=auto;html=1;exitX=0.5;exitY=1;exitDx=0;exitDy=0;entryX=0.5;entryY=0;entryDx=0;entryDy=0;fontSize=14;" edge="1" parent="EOm_PajLkAZvnmIKBMYh-26" source="EOm_PajLkAZvnmIKBMYh-31" target="EOm_PajLkAZvnmIKBMYh-42">
          <mxGeometry relative="1" as="geometry" />
        </mxCell>
        <mxCell id="EOm_PajLkAZvnmIKBMYh-31" value="Purchable Package" style="whiteSpace=wrap;html=1;align=center;verticalAlign=middle;treeFolding=1;treeMoving=1;newEdgeStyle={&quot;edgeStyle&quot;:&quot;elbowEdgeStyle&quot;,&quot;startArrow&quot;:&quot;none&quot;,&quot;endArrow&quot;:&quot;none&quot;};fontSize=17;" vertex="1" parent="EOm_PajLkAZvnmIKBMYh-26">
          <mxGeometry x="190" y="140" width="100" height="60" as="geometry" />
        </mxCell>
        <mxCell id="EOm_PajLkAZvnmIKBMYh-32" value="" style="edgeStyle=elbowEdgeStyle;rounded=0;orthogonalLoop=1;jettySize=auto;html=1;elbow=vertical;startArrow=none;endArrow=none;" edge="1" source="EOm_PajLkAZvnmIKBMYh-29" target="EOm_PajLkAZvnmIKBMYh-33" parent="EOm_PajLkAZvnmIKBMYh-26">
          <mxGeometry relative="1" as="geometry" />
        </mxCell>
        <UserObject label="Custom Package" treeRoot="1" id="EOm_PajLkAZvnmIKBMYh-33">
          <mxCell style="whiteSpace=wrap;html=1;align=center;treeFolding=1;treeMoving=1;newEdgeStyle={&quot;edgeStyle&quot;:&quot;elbowEdgeStyle&quot;,&quot;startArrow&quot;:&quot;none&quot;,&quot;endArrow&quot;:&quot;none&quot;};fontSize=17;" vertex="1" parent="EOm_PajLkAZvnmIKBMYh-26">
            <mxGeometry x="339.99999999999955" y="140" width="120" height="60" as="geometry" />
          </mxCell>
        </UserObject>
        <mxCell id="EOm_PajLkAZvnmIKBMYh-37" value="Free Package" style="swimlane;fontStyle=0;childLayout=stackLayout;horizontal=1;startSize=26;fillColor=none;horizontalStack=0;resizeParent=1;resizeParentMax=0;resizeLast=0;collapsible=1;marginBottom=0;fontSize=17;" vertex="1" parent="EOm_PajLkAZvnmIKBMYh-26">
          <mxGeometry x="20" y="230" width="160" height="130" as="geometry" />
        </mxCell>
        <mxCell id="EOm_PajLkAZvnmIKBMYh-38" value="Create Up to 5 Script" style="text;strokeColor=none;fillColor=none;align=left;verticalAlign=top;spacingLeft=4;spacingRight=4;overflow=hidden;rotatable=0;points=[[0,0.5],[1,0.5]];portConstraint=eastwest;fontSize=15;" vertex="1" parent="EOm_PajLkAZvnmIKBMYh-37">
          <mxGeometry y="26" width="160" height="26" as="geometry" />
        </mxCell>
        <mxCell id="EOm_PajLkAZvnmIKBMYh-39" value="Import Up to 5 script" style="text;strokeColor=none;fillColor=none;align=left;verticalAlign=top;spacingLeft=4;spacingRight=4;overflow=hidden;rotatable=0;points=[[0,0.5],[1,0.5]];portConstraint=eastwest;fontSize=15;" vertex="1" parent="EOm_PajLkAZvnmIKBMYh-37">
          <mxGeometry y="52" width="160" height="26" as="geometry" />
        </mxCell>
        <mxCell id="EOm_PajLkAZvnmIKBMYh-40" value="Limited Usage for proxy" style="text;strokeColor=none;fillColor=none;align=left;verticalAlign=top;spacingLeft=4;spacingRight=4;overflow=hidden;rotatable=0;points=[[0,0.5],[1,0.5]];portConstraint=eastwest;fontSize=14;" vertex="1" parent="EOm_PajLkAZvnmIKBMYh-37">
          <mxGeometry y="78" width="160" height="26" as="geometry" />
        </mxCell>
        <mxCell id="EOm_PajLkAZvnmIKBMYh-60" value="One Device Login&#xa;" style="text;strokeColor=none;fillColor=none;align=left;verticalAlign=top;spacingLeft=4;spacingRight=4;overflow=hidden;rotatable=0;points=[[0,0.5],[1,0.5]];portConstraint=eastwest;fontSize=14;" vertex="1" parent="EOm_PajLkAZvnmIKBMYh-37">
          <mxGeometry y="104" width="160" height="26" as="geometry" />
        </mxCell>
        <mxCell id="EOm_PajLkAZvnmIKBMYh-42" value="Basic" style="swimlane;fontStyle=0;childLayout=stackLayout;horizontal=1;startSize=26;fillColor=none;horizontalStack=0;resizeParent=1;resizeParentMax=0;resizeLast=0;collapsible=1;marginBottom=0;fontSize=14;noLabel=0;" vertex="1" parent="EOm_PajLkAZvnmIKBMYh-26">
          <mxGeometry x="190" y="230" width="140" height="156" as="geometry">
            <mxRectangle x="190" y="230" width="50" height="26" as="alternateBounds" />
          </mxGeometry>
        </mxCell>
        <mxCell id="EOm_PajLkAZvnmIKBMYh-43" value="Unlimited ScriptÂ " style="text;strokeColor=none;fillColor=none;align=left;verticalAlign=top;spacingLeft=4;spacingRight=4;overflow=hidden;rotatable=0;points=[[0,0.5],[1,0.5]];portConstraint=eastwest;fontSize=14;" vertex="1" parent="EOm_PajLkAZvnmIKBMYh-42">
          <mxGeometry y="26" width="140" height="26" as="geometry" />
        </mxCell>
        <mxCell id="EOm_PajLkAZvnmIKBMYh-44" value="Import/Export" style="text;strokeColor=none;fillColor=none;align=left;verticalAlign=top;spacingLeft=4;spacingRight=4;overflow=hidden;rotatable=0;points=[[0,0.5],[1,0.5]];portConstraint=eastwest;fontSize=14;" vertex="1" parent="EOm_PajLkAZvnmIKBMYh-42">
          <mxGeometry y="52" width="140" height="26" as="geometry" />
        </mxCell>
        <mxCell id="EOm_PajLkAZvnmIKBMYh-45" value="Own Proxy access" style="text;strokeColor=none;fillColor=none;align=left;verticalAlign=top;spacingLeft=4;spacingRight=4;overflow=hidden;rotatable=0;points=[[0,0.5],[1,0.5]];portConstraint=eastwest;fontSize=14;" vertex="1" parent="EOm_PajLkAZvnmIKBMYh-42">
          <mxGeometry y="78" width="140" height="26" as="geometry" />
        </mxCell>
        <mxCell id="EOm_PajLkAZvnmIKBMYh-59" value="Up to 2 device login" style="text;strokeColor=none;fillColor=none;align=left;verticalAlign=top;spacingLeft=4;spacingRight=4;overflow=hidden;rotatable=0;points=[[0,0.5],[1,0.5]];portConstraint=eastwest;fontSize=14;" vertex="1" parent="EOm_PajLkAZvnmIKBMYh-42">
          <mxGeometry y="104" width="140" height="26" as="geometry" />
        </mxCell>
        <mxCell id="EOm_PajLkAZvnmIKBMYh-90" value="Customer Support" style="text;strokeColor=none;fillColor=none;align=left;verticalAlign=top;spacingLeft=4;spacingRight=4;overflow=hidden;rotatable=0;points=[[0,0.5],[1,0.5]];portConstraint=eastwest;fontSize=14;" vertex="1" parent="EOm_PajLkAZvnmIKBMYh-42">
          <mxGeometry y="130" width="140" height="26" as="geometry" />
        </mxCell>
        <mxCell id="EOm_PajLkAZvnmIKBMYh-66" style="edgeStyle=orthogonalEdgeStyle;rounded=0;orthogonalLoop=1;jettySize=auto;html=1;exitX=0.5;exitY=1;exitDx=0;exitDy=0;entryX=0.5;entryY=0;entryDx=0;entryDy=0;fontSize=14;" edge="1" target="EOm_PajLkAZvnmIKBMYh-67" source="EOm_PajLkAZvnmIKBMYh-42" parent="EOm_PajLkAZvnmIKBMYh-26">
          <mxGeometry relative="1" as="geometry">
            <mxPoint x="449.9999999999998" y="330" as="sourcePoint" />
          </mxGeometry>
        </mxCell>
        <mxCell id="EOm_PajLkAZvnmIKBMYh-67" value="Advance" style="swimlane;fontStyle=0;childLayout=stackLayout;horizontal=1;startSize=26;fillColor=none;horizontalStack=0;resizeParent=1;resizeParentMax=0;resizeLast=0;collapsible=1;marginBottom=0;fontSize=14;noLabel=0;" vertex="1" parent="EOm_PajLkAZvnmIKBMYh-26">
          <mxGeometry x="190" y="400" width="140" height="156" as="geometry">
            <mxRectangle x="190" y="230" width="50" height="26" as="alternateBounds" />
          </mxGeometry>
        </mxCell>
        <mxCell id="EOm_PajLkAZvnmIKBMYh-68" value="Unlimited ScriptÂ " style="text;strokeColor=none;fillColor=none;align=left;verticalAlign=top;spacingLeft=4;spacingRight=4;overflow=hidden;rotatable=0;points=[[0,0.5],[1,0.5]];portConstraint=eastwest;fontSize=14;" vertex="1" parent="EOm_PajLkAZvnmIKBMYh-67">
          <mxGeometry y="26" width="140" height="26" as="geometry" />
        </mxCell>
        <mxCell id="EOm_PajLkAZvnmIKBMYh-69" value="Import/Export" style="text;strokeColor=none;fillColor=none;align=left;verticalAlign=top;spacingLeft=4;spacingRight=4;overflow=hidden;rotatable=0;points=[[0,0.5],[1,0.5]];portConstraint=eastwest;fontSize=14;" vertex="1" parent="EOm_PajLkAZvnmIKBMYh-67">
          <mxGeometry y="52" width="140" height="26" as="geometry" />
        </mxCell>
        <mxCell id="EOm_PajLkAZvnmIKBMYh-70" value="Own Proxy access" style="text;strokeColor=none;fillColor=none;align=left;verticalAlign=top;spacingLeft=4;spacingRight=4;overflow=hidden;rotatable=0;points=[[0,0.5],[1,0.5]];portConstraint=eastwest;fontSize=14;" vertex="1" parent="EOm_PajLkAZvnmIKBMYh-67">
          <mxGeometry y="78" width="140" height="26" as="geometry" />
        </mxCell>
        <mxCell id="EOm_PajLkAZvnmIKBMYh-71" value="Up to 5 device login" style="text;strokeColor=none;fillColor=none;align=left;verticalAlign=top;spacingLeft=4;spacingRight=4;overflow=hidden;rotatable=0;points=[[0,0.5],[1,0.5]];portConstraint=eastwest;fontSize=14;" vertex="1" parent="EOm_PajLkAZvnmIKBMYh-67">
          <mxGeometry y="104" width="140" height="26" as="geometry" />
        </mxCell>
        <mxCell id="EOm_PajLkAZvnmIKBMYh-91" value="Customer Support" style="text;strokeColor=none;fillColor=none;align=left;verticalAlign=top;spacingLeft=4;spacingRight=4;overflow=hidden;rotatable=0;points=[[0,0.5],[1,0.5]];portConstraint=eastwest;fontSize=14;" vertex="1" parent="EOm_PajLkAZvnmIKBMYh-67">
          <mxGeometry y="130" width="140" height="26" as="geometry" />
        </mxCell>
        <mxCell id="EOm_PajLkAZvnmIKBMYh-72" style="edgeStyle=orthogonalEdgeStyle;rounded=0;orthogonalLoop=1;jettySize=auto;html=1;exitX=0.5;exitY=1;exitDx=0;exitDy=0;entryX=0.5;entryY=0;entryDx=0;entryDy=0;fontSize=14;" edge="1" target="EOm_PajLkAZvnmIKBMYh-73" source="EOm_PajLkAZvnmIKBMYh-67" parent="EOm_PajLkAZvnmIKBMYh-26">
          <mxGeometry relative="1" as="geometry">
            <mxPoint x="469.9999999999998" y="490" as="sourcePoint" />
          </mxGeometry>
        </mxCell>
        <mxCell id="EOm_PajLkAZvnmIKBMYh-73" value="Max" style="swimlane;fontStyle=0;childLayout=stackLayout;horizontal=1;startSize=26;fillColor=none;horizontalStack=0;resizeParent=1;resizeParentMax=0;resizeLast=0;collapsible=1;marginBottom=0;fontSize=14;noLabel=0;" vertex="1" parent="EOm_PajLkAZvnmIKBMYh-26">
          <mxGeometry x="190" y="570" width="140" height="180" as="geometry">
            <mxRectangle x="190" y="230" width="50" height="26" as="alternateBounds" />
          </mxGeometry>
        </mxCell>
        <mxCell id="EOm_PajLkAZvnmIKBMYh-74" value="Unlimited ScriptÂ " style="text;strokeColor=none;fillColor=none;align=left;verticalAlign=top;spacingLeft=4;spacingRight=4;overflow=hidden;rotatable=0;points=[[0,0.5],[1,0.5]];portConstraint=eastwest;fontSize=14;" vertex="1" parent="EOm_PajLkAZvnmIKBMYh-73">
          <mxGeometry y="26" width="140" height="26" as="geometry" />
        </mxCell>
        <mxCell id="EOm_PajLkAZvnmIKBMYh-75" value="Import/Export" style="text;strokeColor=none;fillColor=none;align=left;verticalAlign=top;spacingLeft=4;spacingRight=4;overflow=hidden;rotatable=0;points=[[0,0.5],[1,0.5]];portConstraint=eastwest;fontSize=14;" vertex="1" parent="EOm_PajLkAZvnmIKBMYh-73">
          <mxGeometry y="52" width="140" height="26" as="geometry" />
        </mxCell>
        <mxCell id="EOm_PajLkAZvnmIKBMYh-76" value="Own Proxy access" style="text;strokeColor=none;fillColor=none;align=left;verticalAlign=top;spacingLeft=4;spacingRight=4;overflow=hidden;rotatable=0;points=[[0,0.5],[1,0.5]];portConstraint=eastwest;fontSize=14;" vertex="1" parent="EOm_PajLkAZvnmIKBMYh-73">
          <mxGeometry y="78" width="140" height="26" as="geometry" />
        </mxCell>
        <mxCell id="EOm_PajLkAZvnmIKBMYh-77" value="Up to 5*2 &#xa;device login" style="text;strokeColor=none;fillColor=none;align=left;verticalAlign=top;spacingLeft=4;spacingRight=4;overflow=hidden;rotatable=0;points=[[0,0.5],[1,0.5]];portConstraint=eastwest;fontSize=14;" vertex="1" parent="EOm_PajLkAZvnmIKBMYh-73">
          <mxGeometry y="104" width="140" height="46" as="geometry" />
        </mxCell>
        <mxCell id="EOm_PajLkAZvnmIKBMYh-92" value="Customer Support" style="text;strokeColor=none;fillColor=none;align=left;verticalAlign=top;spacingLeft=4;spacingRight=4;overflow=hidden;rotatable=0;points=[[0,0.5],[1,0.5]];portConstraint=eastwest;fontSize=14;" vertex="1" parent="EOm_PajLkAZvnmIKBMYh-73">
          <mxGeometry y="150" width="140" height="30" as="geometry" />
        </mxCell>
        <mxCell id="EOm_PajLkAZvnmIKBMYh-82" value="List" style="swimlane;fontStyle=0;childLayout=stackLayout;horizontal=1;startSize=26;fillColor=none;horizontalStack=0;resizeParent=1;resizeParentMax=0;resizeLast=0;collapsible=1;marginBottom=0;fontSize=14;" vertex="1" parent="EOm_PajLkAZvnmIKBMYh-26">
          <mxGeometry x="340" y="230" width="140" height="200" as="geometry" />
        </mxCell>
        <mxCell id="EOm_PajLkAZvnmIKBMYh-83" value="Unlimited Script" style="text;strokeColor=none;fillColor=none;align=left;verticalAlign=top;spacingLeft=4;spacingRight=4;overflow=hidden;rotatable=0;points=[[0,0.5],[1,0.5]];portConstraint=eastwest;fontSize=14;" vertex="1" parent="EOm_PajLkAZvnmIKBMYh-82">
          <mxGeometry y="26" width="140" height="26" as="geometry" />
        </mxCell>
        <mxCell id="EOm_PajLkAZvnmIKBMYh-84" value="Import/Export Script" style="text;strokeColor=none;fillColor=none;align=left;verticalAlign=top;spacingLeft=4;spacingRight=4;overflow=hidden;rotatable=0;points=[[0,0.5],[1,0.5]];portConstraint=eastwest;fontSize=14;" vertex="1" parent="EOm_PajLkAZvnmIKBMYh-82">
          <mxGeometry y="52" width="140" height="26" as="geometry" />
        </mxCell>
        <mxCell id="EOm_PajLkAZvnmIKBMYh-85" value="Exchange Script" style="text;strokeColor=none;fillColor=none;align=left;verticalAlign=top;spacingLeft=4;spacingRight=4;overflow=hidden;rotatable=0;points=[[0,0.5],[1,0.5]];portConstraint=eastwest;fontSize=14;" vertex="1" parent="EOm_PajLkAZvnmIKBMYh-82">
          <mxGeometry y="78" width="140" height="26" as="geometry" />
        </mxCell>
        <mxCell id="EOm_PajLkAZvnmIKBMYh-86" value="Customer Support" style="text;strokeColor=none;fillColor=none;align=left;verticalAlign=top;spacingLeft=4;spacingRight=4;overflow=hidden;rotatable=0;points=[[0,0.5],[1,0.5]];portConstraint=eastwest;fontSize=14;" vertex="1" parent="EOm_PajLkAZvnmIKBMYh-82">
          <mxGeometry y="104" width="140" height="26" as="geometry" />
        </mxCell>
        <mxCell id="EOm_PajLkAZvnmIKBMYh-87" value="Own Proxy access" style="text;strokeColor=none;fillColor=none;align=left;verticalAlign=top;spacingLeft=4;spacingRight=4;overflow=hidden;rotatable=0;points=[[0,0.5],[1,0.5]];portConstraint=eastwest;fontSize=14;" vertex="1" parent="EOm_PajLkAZvnmIKBMYh-82">
          <mxGeometry y="130" width="140" height="26" as="geometry" />
        </mxCell>
        <mxCell id="EOm_PajLkAZvnmIKBMYh-88" value="Custom Device &#xa;Configurations" style="text;strokeColor=none;fillColor=none;align=left;verticalAlign=top;spacingLeft=4;spacingRight=4;overflow=hidden;rotatable=0;points=[[0,0.5],[1,0.5]];portConstraint=eastwest;fontSize=14;" vertex="1" parent="EOm_PajLkAZvnmIKBMYh-82">
          <mxGeometry y="156" width="140" height="44" as="geometry" />
        </mxCell>
        <mxCell id="EOm_PajLkAZvnmIKBMYh-89" style="edgeStyle=orthogonalEdgeStyle;rounded=0;orthogonalLoop=1;jettySize=auto;html=1;exitX=0.5;exitY=1;exitDx=0;exitDy=0;entryX=0.5;entryY=0;entryDx=0;entryDy=0;fontSize=14;" edge="1" parent="EOm_PajLkAZvnmIKBMYh-26" source="EOm_PajLkAZvnmIKBMYh-33" target="EOm_PajLkAZvnmIKBMYh-82">
          <mxGeometry relative="1" as="geometry" />
        </mxCell>
        <mxCell id="EOm_PajLkAZvnmIKBMYh-93" value="License Management System" style="swimlane;fontSize=14;" vertex="1" parent="1">
          <mxGeometry x="550" y="120" width="1130" height="1070" as="geometry" />
        </mxCell>
        <mxCell id="EOm_PajLkAZvnmIKBMYh-116" style="edgeStyle=orthogonalEdgeStyle;rounded=0;orthogonalLoop=1;jettySize=auto;html=1;fontSize=14;" edge="1" parent="EOm_PajLkAZvnmIKBMYh-93" source="EOm_PajLkAZvnmIKBMYh-94" target="EOm_PajLkAZvnmIKBMYh-115">
          <mxGeometry relative="1" as="geometry" />
        </mxCell>
        <mxCell id="EOm_PajLkAZvnmIKBMYh-94" value="" style="shape=mxgraph.signs.tech.computer;html=1;pointerEvents=1;fillColor=#000000;strokeColor=none;verticalLabelPosition=bottom;verticalAlign=top;align=center;sketch=0;fontSize=14;" vertex="1" parent="EOm_PajLkAZvnmIKBMYh-93">
          <mxGeometry x="70" y="100" width="98" height="98" as="geometry" />
        </mxCell>
        <mxCell id="EOm_PajLkAZvnmIKBMYh-98" value="" style="sketch=0;shadow=0;dashed=0;html=1;strokeColor=none;fillColor=#505050;labelPosition=center;verticalLabelPosition=bottom;verticalAlign=top;outlineConnect=0;align=center;shape=mxgraph.office.databases.database_server_green;fontSize=14;" vertex="1" parent="EOm_PajLkAZvnmIKBMYh-93">
          <mxGeometry x="980" y="425" width="100" height="150" as="geometry" />
        </mxCell>
        <mxCell id="EOm_PajLkAZvnmIKBMYh-122" style="edgeStyle=orthogonalEdgeStyle;rounded=0;orthogonalLoop=1;jettySize=auto;html=1;fontSize=14;" edge="1" parent="EOm_PajLkAZvnmIKBMYh-93" source="EOm_PajLkAZvnmIKBMYh-115" target="EOm_PajLkAZvnmIKBMYh-117">
          <mxGeometry relative="1" as="geometry" />
        </mxCell>
        <mxCell id="EOm_PajLkAZvnmIKBMYh-115" value="" style="sketch=0;pointerEvents=1;shadow=0;dashed=0;html=1;strokeColor=none;fillColor=#505050;labelPosition=center;verticalLabelPosition=bottom;outlineConnect=0;verticalAlign=top;align=center;shape=mxgraph.office.clouds.cloud_service_request;fontSize=14;" vertex="1" parent="EOm_PajLkAZvnmIKBMYh-93">
          <mxGeometry x="450" y="74" width="220" height="150" as="geometry" />
        </mxCell>
        <mxCell id="EOm_PajLkAZvnmIKBMYh-124" style="edgeStyle=orthogonalEdgeStyle;rounded=0;orthogonalLoop=1;jettySize=auto;html=1;entryX=0;entryY=0.5;entryDx=0;entryDy=0;fontSize=14;" edge="1" parent="EOm_PajLkAZvnmIKBMYh-93" source="EOm_PajLkAZvnmIKBMYh-117" target="EOm_PajLkAZvnmIKBMYh-123">
          <mxGeometry relative="1" as="geometry" />
        </mxCell>
        <mxCell id="EOm_PajLkAZvnmIKBMYh-117" value="" style="sketch=0;pointerEvents=1;shadow=0;dashed=0;html=1;strokeColor=none;fillColor=#505050;labelPosition=center;verticalLabelPosition=bottom;outlineConnect=0;verticalAlign=top;align=center;shape=mxgraph.office.clouds.cloud;fontSize=14;" vertex="1" parent="EOm_PajLkAZvnmIKBMYh-93">
          <mxGeometry x="320" y="330" width="180" height="90" as="geometry" />
        </mxCell>
        <mxCell id="EOm_PajLkAZvnmIKBMYh-125" style="edgeStyle=orthogonalEdgeStyle;rounded=0;orthogonalLoop=1;jettySize=auto;html=1;exitX=1;exitY=0.5;exitDx=0;exitDy=0;fontSize=14;" edge="1" parent="EOm_PajLkAZvnmIKBMYh-93" source="EOm_PajLkAZvnmIKBMYh-123" target="EOm_PajLkAZvnmIKBMYh-98">
          <mxGeometry relative="1" as="geometry" />
        </mxCell>
        <mxCell id="EOm_PajLkAZvnmIKBMYh-143" value="No" style="edgeLabel;html=1;align=center;verticalAlign=middle;resizable=0;points=[];fontSize=14;" vertex="1" connectable="0" parent="EOm_PajLkAZvnmIKBMYh-125">
          <mxGeometry x="-0.8202" y="4" relative="1" as="geometry">
            <mxPoint x="5" y="-21" as="offset" />
          </mxGeometry>
        </mxCell>
        <mxCell id="EOm_PajLkAZvnmIKBMYh-130" value="" style="edgeStyle=orthogonalEdgeStyle;rounded=0;orthogonalLoop=1;jettySize=auto;html=1;fontSize=14;" edge="1" parent="EOm_PajLkAZvnmIKBMYh-93" source="EOm_PajLkAZvnmIKBMYh-123" target="EOm_PajLkAZvnmIKBMYh-129">
          <mxGeometry relative="1" as="geometry" />
        </mxCell>
        <mxCell id="EOm_PajLkAZvnmIKBMYh-142" value="Yes" style="edgeLabel;html=1;align=center;verticalAlign=middle;resizable=0;points=[];fontSize=14;" vertex="1" connectable="0" parent="EOm_PajLkAZvnmIKBMYh-130">
          <mxGeometry x="0.3108" y="-2" relative="1" as="geometry">
            <mxPoint x="30" y="-18" as="offset" />
          </mxGeometry>
        </mxCell>
        <mxCell id="EOm_PajLkAZvnmIKBMYh-123" value="Validate LIC And&lt;br&gt;&amp;nbsp;Monitor User Activity&amp;nbsp;&lt;br&gt;In Lic&lt;br&gt;" style="rhombus;whiteSpace=wrap;html=1;fontSize=14;" vertex="1" parent="EOm_PajLkAZvnmIKBMYh-93">
          <mxGeometry x="650" y="290" width="170" height="170" as="geometry" />
        </mxCell>
        <mxCell id="EOm_PajLkAZvnmIKBMYh-129" value="Is Suspisios" style="rhombus;whiteSpace=wrap;html=1;fontSize=14;" vertex="1" parent="EOm_PajLkAZvnmIKBMYh-93">
          <mxGeometry x="540" y="540" width="200" height="130" as="geometry" />
        </mxCell>
        <mxCell id="EOm_PajLkAZvnmIKBMYh-136" value="Traffic Director" style="sketch=0;html=1;fillColor=#5184F3;strokeColor=none;verticalAlign=top;labelPosition=center;verticalLabelPosition=bottom;align=center;spacingTop=-6;fontSize=11;fontStyle=1;fontColor=#999999;shape=mxgraph.gcp2.hexIcon;prIcon=traffic_director" vertex="1" parent="EOm_PajLkAZvnmIKBMYh-93">
          <mxGeometry x="522" y="90" width="45.13" height="40" as="geometry" />
        </mxCell>
        <mxCell id="EOm_PajLkAZvnmIKBMYh-141" style="edgeStyle=orthogonalEdgeStyle;rounded=0;orthogonalLoop=1;jettySize=auto;html=1;exitX=0.5;exitY=1;exitDx=0;exitDy=0;entryX=0.541;entryY=0.121;entryDx=0;entryDy=0;entryPerimeter=0;fontSize=14;" edge="1" parent="EOm_PajLkAZvnmIKBMYh-93" source="EOm_PajLkAZvnmIKBMYh-137" target="EOm_PajLkAZvnmIKBMYh-140">
          <mxGeometry relative="1" as="geometry" />
        </mxCell>
        <mxCell id="EOm_PajLkAZvnmIKBMYh-137" value="Create Log" style="whiteSpace=wrap;html=1;fontSize=14;" vertex="1" parent="EOm_PajLkAZvnmIKBMYh-93">
          <mxGeometry x="850" y="640" width="120" height="60" as="geometry" />
        </mxCell>
        <mxCell id="EOm_PajLkAZvnmIKBMYh-138" value="" style="edgeStyle=orthogonalEdgeStyle;rounded=0;orthogonalLoop=1;jettySize=auto;html=1;fontSize=14;" edge="1" parent="EOm_PajLkAZvnmIKBMYh-93" source="EOm_PajLkAZvnmIKBMYh-129" target="EOm_PajLkAZvnmIKBMYh-137">
          <mxGeometry relative="1" as="geometry" />
        </mxCell>
        <mxCell id="EOm_PajLkAZvnmIKBMYh-139" value="Yes" style="edgeLabel;html=1;align=center;verticalAlign=middle;resizable=0;points=[];fontSize=14;" vertex="1" connectable="0" parent="EOm_PajLkAZvnmIKBMYh-138">
          <mxGeometry x="-0.2395" y="6" relative="1" as="geometry">
            <mxPoint x="9" y="-7" as="offset" />
          </mxGeometry>
        </mxCell>
        <mxCell id="EOm_PajLkAZvnmIKBMYh-140" value="" style="shape=mxgraph.signs.tech.mail;html=1;pointerEvents=1;fillColor=#000000;strokeColor=none;verticalLabelPosition=bottom;verticalAlign=top;align=center;sketch=0;fontSize=14;" vertex="1" parent="EOm_PajLkAZvnmIKBMYh-93">
          <mxGeometry x="871" y="800" width="99" height="75" as="geometry" />
        </mxCell>
      </root>
    </mxGraphModel>
  </diagram>
</mxfile>
